# xmcd
#
# Track frame offsets:
#	150
#	15862
#	31574
#	48486
#	64573
#	80585
#	94797
#	112009
#	128321
#	144258
#	156820
#	172457
#	185544
#	201106
#	216668
#	234180
#	249367
#	265004
#
# Disc length: 3750 seconds
# Revision: 2
# Processed by: cddbd v1.5.2PL0 Copyright (c) Steve Scherf et al.
# Submitted via: dBpowerAMP V12.0
#
DISCID=e90ea412
DTITLE=Various Artist - Country Radio June 2011
DYEAR=2011
DGENRE=Country
TTITLE0=Blake Shelton - Honey Bee
TTITLE1=Trace Adkins - Just Fishin'
TTITLE2=Luke Bryan - Country Girl (Shake It For Me)
TTITLE3=Stealing Angels - Paper Heart
TTITLE4=Brantley Gilbert - Country Must Be Country Wide
TTITLE5=Dierks Bentley - Am I The Only One
TTITLE6=Jason Aldean - Dirt Road Anthem
TTITLE7=Jaron And The Long Road To Love - It's A Good Thing
TTITLE8=Reba McEntire - When Love Gets A Hold Of You
TTITLE9=Jake Owen - Barefoot Blue Jean Night
TTITLE10=Billy Currington - Love Done Gone
TTITLE11=Margaret Durante - Maybe Tonight
TTITLE12=Rodney Atkins - Take A Road Back
TTITLE13=Jason Michael Carroll - Numbers
TTITLE14=Randy Houser - In God's Time
TTITLE15=Sunny Sweeney - Staying's Worse Than Leaving
TTITLE16=John Rich - For The Kids
TTITLE17=Danielle Car - Pretty Please
EXTD=
EXTT0=
EXTT1=
EXTT2=
EXTT3=
EXTT4=
EXTT5=
EXTT6=
EXTT7=
EXTT8=
EXTT9=
EXTT10=
EXTT11=
EXTT12=
EXTT13=
EXTT14=
EXTT15=
EXTT16=
EXTT17=
PLAYORDER=
